<?xml version="1.0" encoding="UTF-8" standalone="no"?>
<svg
   xmlns:dc="http://purl.org/dc/elements/1.1/"
   xmlns:cc="http://creativecommons.org/ns#"
   xmlns:rdf="http://www.w3.org/1999/02/22-rdf-syntax-ns#"
   xmlns:svg="http://www.w3.org/2000/svg"
   xmlns="http://www.w3.org/2000/svg"
   xmlns:xlink="http://www.w3.org/1999/xlink"
   xmlns:sodipodi="http://sodipodi.sourceforge.net/DTD/sodipodi-0.dtd"
   xmlns:inkscape="http://www.inkscape.org/namespaces/inkscape"
   version="1.1"
   preserveAspectRatio="none"
   x="0px"
   y="0px"
   width="2240.1001"
   height="1120"
   viewBox="0 0 2240.1001 1120"
   id="svg330"
   sodipodi:docname="vector_backgrounds.svg"
   inkscape:version="0.92.3 (2405546, 2018-03-11)">
  <metadata
     id="metadata334">
    <rdf:RDF>
      <cc:Work
         rdf:about="">
        <dc:format>image/svg+xml</dc:format>
        <dc:type
           rdf:resource="http://purl.org/dc/dcmitype/StillImage" />
        <dc:title></dc:title>
      </cc:Work>
    </rdf:RDF>
  </metadata>
  <sodipodi:namedview
     pagecolor="#ffffff"
     bordercolor="#666666"
     borderopacity="1"
     objecttolerance="10"
     gridtolerance="10"
     guidetolerance="10"
     inkscape:pageopacity="0"
     inkscape:pageshadow="2"
     inkscape:window-width="1920"
     inkscape:window-height="1057"
     id="namedview332"
     showgrid="false"
     fit-margin-top="0"
     fit-margin-left="0"
     fit-margin-right="0"
     fit-margin-bottom="0"
     inkscape:zoom="0.54727273"
     inkscape:cx="1072.6632"
     inkscape:cy="410.53782"
     inkscape:window-x="-8"
     inkscape:window-y="-8"
     inkscape:window-maximized="1"
     inkscape:current-layer="svg330" />
  <defs
     id="defs152">
    <g
       id="Layer0_0_MEMBER_0_FILL">
      <path
         d="m 2240,560 h -560 v 560 h 560 z"
         id="path2"
         inkscape:connector-curvature="0"
         style="fill:#d0f4f7;stroke:none" />
    </g>
    <g
       id="Layer0_0_MEMBER_1_FILL">
      <path
         d="m 2043.4,790.15 q -7.5,-7.05 -17.85,-6.65 -10.35,0.35 -17.35,8.05 -2,1.95 -3.3,4.25 -12.85,-6.95 -28.5,-6.3 -16.6,0.6 -29.35,9.45 -14.65,-10.25 -33.55,-9.5 -21.1,0.85 -36.05,14.95 l -0.05,-0.05 q -16.95,-15.55 -40.1,-14.7 -7.45,0.3 -14.2,2.3 -4.15,-13.7 -15.5,-24.2 -3.95,-3.65 -8.25,-6.4 -14.05,-9.05 -31.75,-8.3 -23.15,0.9 -38.85,17.75 -0.1,0.1 -0.2,0.25 -0.85,-0.9 -1.7,-1.8 -1.6,-1.6 -3.25,-3 -14.95,-12.9 -35.3,-12.9 -4.3,0 -8.4,0.6 V 1075 h 559.95 l 0.05,-321.3 q -17.85,3.1 -30.65,16.95 -5.6,6.05 -9.1,12.95 -11.2,-4.9 -24.5,-4.4 -15.05,0.6 -26.9,7.95 -1.7,-1.9 -3.6,-3.65 -20.4,-18.85 -48.15,-17.8 -27.7,1.1 -46.55,21.45 -2.45,2.7 -4.65,5.45 -1.1,-1.25 -2.4,-2.45 z"
         id="path5"
         inkscape:connector-curvature="0"
         style="fill:#dcfafc;stroke:none" />
    </g>
    <g
       id="Layer0_0_MEMBER_2_FILL">
      <path
         d="m 1894.35,831.5 q -10.35,-0.4 -17.85,6.65 -1.3,1.2 -2.4,2.45 -2.2,-2.75 -4.65,-5.45 -18.85,-20.35 -46.55,-21.45 -27.75,-1.05 -48.15,17.8 -1.9,1.75 -3.6,3.65 -11.85,-7.35 -26.9,-7.95 -13.3,-0.5 -24.5,4.4 -3.5,-6.9 -9.1,-12.95 -12.8,-13.85 -30.65,-16.95 l 0.05,175.25 H 2240 v -175 q -4.1,-0.6 -8.4,-0.6 -20.35,0 -35.3,12.9 -1.65,1.4 -3.25,3 -0.85,0.9 -1.7,1.8 -0.1,-0.15 -0.2,-0.25 -15.7,-16.85 -38.85,-17.75 -17.7,-0.75 -31.75,8.3 -4.3,2.75 -8.25,6.4 -11.35,10.5 -15.5,24.2 -6.75,-2 -14.2,-2.3 -23.15,-0.85 -40.1,14.7 l -0.05,0.05 q -14.95,-14.1 -36.05,-14.95 -18.9,-0.75 -33.55,9.5 -12.75,-8.85 -29.35,-9.45 -15.65,-0.65 -28.5,6.3 -1.3,-2.3 -3.3,-4.25 -7,-7.7 -17.35,-8.05 z"
         id="path8"
         inkscape:connector-curvature="0"
         style="fill:#e7fdff;stroke:none" />
    </g>
    <g
       id="Layer0_0_MEMBER_3_FILL">
      <path
         d="m 2184.35,907 v 11.9 h 12.2 V 907 h -12.2 m -23,-22.45 h -17.85 v 108.4 h 17.85 v -108.4 m -392.95,-12 h -17.85 v 108.4 h 17.85 v -108.4 m 89.95,-38 h -17.85 v 108.4 h 17.85 z"
         id="path11"
         inkscape:connector-curvature="0"
         style="fill:#efebdc;stroke:none" />
      <path
         d="m 2176.65,905.9 q 3.45,0.8 7.7,1.1 h 12.2 q 4.3,-0.3 7.7,-1.1 4.95,-1.1 5.6,-2.65 0.1,-0.25 0.1,-0.5 v -0.05 q -0.05,-1.6 -0.5,-3.1 -1.25,-3.7 -5.2,-6.6 -5.7,-4.1 -13.8,-4.1 -8.05,0 -13.8,4.1 -3.95,2.9 -5.15,6.6 -0.5,1.5 -0.55,3.1 v 0.05 q 0,0.25 0.1,0.5 0.65,1.55 5.6,2.65 m -44.4,-41.8 q -5.75,4.25 -7.5,9.65 -0.75,2.2 -0.8,4.5 v 0.1 q 0,0.35 0.15,0.7 0.95,2.3 8.15,3.9 5.05,1.15 11.25,1.6 h 17.85 q 6.3,-0.45 11.25,-1.6 7.25,-1.6 8.2,-3.9 0.15,-0.35 0.15,-0.7 v -0.1 q -0.1,-2.3 -0.75,-4.5 -1.8,-5.4 -7.6,-9.65 -8.3,-6 -20.15,-6 -11.8,0 -20.2,6 M 1788,866.25 q -0.1,-2.3 -0.75,-4.5 -1.8,-5.4 -7.6,-9.65 -8.3,-6 -20.15,-6 -11.8,0 -20.2,6 -5.75,4.25 -7.5,9.65 -0.75,2.2 -0.8,4.5 v 0.1 q 0,0.35 0.15,0.7 0.95,2.3 8.15,3.9 5.05,1.15 11.25,1.6 h 17.85 q 6.3,-0.45 11.25,-1.6 7.25,-1.6 8.2,-3.9 0.15,-0.35 0.15,-0.7 v -0.1 m 89.2,-42.5 q -1.8,-5.4 -7.6,-9.65 -8.3,-6 -20.15,-6 -11.8,0 -20.2,6 -5.75,4.25 -7.5,9.65 -0.75,2.2 -0.8,4.5 v 0.1 q 0,0.35 0.15,0.7 0.95,2.3 8.15,3.9 5.05,1.15 11.25,1.6 h 17.85 q 6.3,-0.45 11.25,-1.6 7.25,-1.6 8.2,-3.9 0.15,-0.35 0.15,-0.7 v -0.1 q -0.1,-2.3 -0.75,-4.5 z"
         id="path13"
         inkscape:connector-curvature="0"
         style="fill:#a06d3d;stroke:none" />
    </g>
    <g
       id="Layer0_0_MEMBER_4_FILL">
      <path
         d="m 1862.55,914.3 q -26.85,-5.8 -54.8,-8.7 -40.25,-3.95 -79.35,1.75 -24.15,3.6 -48.4,6.95 V 1120 h 560 V 915.05 q -24.8,3.45 -49.3,8 -38.1,7 -76.7,12.6 -38.2,5.55 -77.85,6.2 -38.2,0.45 -75.55,-5.75 -38.1,-6.25 -74.3,-16.05 -11.75,-3.15 -23.75,-5.75 z"
         id="path16"
         inkscape:connector-curvature="0"
         style="fill:#c58f5c;stroke:none" />
      <path
         d="m 1807.75,898.65 q 27.95,3 54.8,9 12,2.65 23.75,5.9 36.2,10.15 74.3,16.6 37.35,6.4 75.55,5.95 39.65,-0.7 77.85,-6.45 38.6,-5.75 76.7,-13 24.5,-4.7 49.3,-8.25 v -4.75 q -24.8,3.65 -49.3,8.45 -38.1,7.4 -76.7,13.3 -38.2,5.85 -77.85,6.55 -38.2,0.5 -75.55,-6.05 -38.1,-6.6 -74.3,-17 -11.75,-3.3 -23.75,-6 -26.85,-6.15 -54.8,-9.2 -40.25,-4.2 -79.35,1.85 -24.15,3.75 -48.4,7.35 v 4.75 q 24.25,-3.5 48.4,-7.2 39.1,-5.9 79.35,-1.8 z"
         id="path18"
         inkscape:connector-curvature="0"
         style="fill:#e5b180;stroke:none" />
      <path
         d="m 1862.55,907.65 q -26.85,-6 -54.8,-9 -40.25,-4.1 -79.35,1.8 -24.15,3.7 -48.4,7.2 v 6.65 q 24.25,-3.35 48.4,-6.95 39.1,-5.7 79.35,-1.75 27.95,2.9 54.8,8.7 12,2.6 23.75,5.75 36.2,9.8 74.3,16.05 37.35,6.2 75.55,5.75 39.65,-0.65 77.85,-6.2 38.6,-5.6 76.7,-12.6 24.5,-4.55 49.3,-8 v -6.65 q -24.8,3.55 -49.3,8.25 -38.1,7.25 -76.7,13 -38.2,5.75 -77.85,6.45 -38.2,0.45 -75.55,-5.95 -38.1,-6.45 -74.3,-16.6 -11.75,-3.25 -23.75,-5.9 z"
         id="path20"
         inkscape:connector-curvature="0"
         style="fill:#bd8958;stroke:none" />
    </g>
    <g
       id="Layer0_1_MEMBER_0_FILL">
      <path
         d="M 1680,1120 V 560 h -560 v 560 z"
         id="path23"
         inkscape:connector-curvature="0"
         style="fill:#d0f4f7;stroke:none" />
    </g>
    <g
       id="Layer0_1_MEMBER_1_FILL">
      <path
         d="m 1483.4,790.15 q -7.5,-7.05 -17.85,-6.65 -10.35,0.35 -17.35,8.05 -2,1.95 -3.3,4.25 -12.85,-6.95 -28.5,-6.3 -16.6,0.6 -29.35,9.45 -14.65,-10.25 -33.55,-9.5 -21.1,0.85 -36.05,14.95 l -0.05,-0.05 q -16.95,-15.55 -40.1,-14.7 -7.45,0.3 -14.2,2.3 -4.15,-13.7 -15.5,-24.2 -3.95,-3.65 -8.25,-6.4 -14.05,-9.05 -31.75,-8.3 -23.15,0.9 -38.85,17.75 -0.1,0.1 -0.2,0.25 -0.85,-0.9 -1.7,-1.8 -1.6,-1.6 -3.25,-3 -14.95,-12.9 -35.3,-12.9 -4.3,0 -8.4,0.6 V 1075 h 559.95 l 0.05,-321.3 q -17.85,3.1 -30.65,16.95 -5.6,6.05 -9.1,12.95 -11.2,-4.9 -24.5,-4.4 -15.05,0.6 -26.9,7.95 -1.7,-1.9 -3.6,-3.65 -20.4,-18.85 -48.15,-17.8 -27.7,1.1 -46.55,21.45 -2.45,2.7 -4.65,5.45 -1.1,-1.25 -2.4,-2.45 z"
         id="path26"
         inkscape:connector-curvature="0"
         style="fill:#dcfafc;stroke:none" />
    </g>
    <g
       id="Layer0_1_MEMBER_2_FILL">
      <path
         d="m 1680,801.95 q -4.1,-0.6 -8.4,-0.6 -20.35,0 -35.3,12.9 -1.65,1.4 -3.25,3 -0.85,0.9 -1.7,1.8 -0.1,-0.15 -0.2,-0.25 -15.7,-16.85 -38.85,-17.75 -17.7,-0.75 -31.75,8.3 -4.3,2.75 -8.25,6.4 -11.35,10.5 -15.5,24.2 -6.75,-2 -14.2,-2.3 -23.15,-0.85 -40.1,14.7 l -0.05,0.05 q -14.95,-14.1 -36.05,-14.95 -18.9,-0.75 -33.55,9.5 -12.75,-8.85 -29.35,-9.45 -15.65,-0.65 -28.5,6.3 -1.3,-2.3 -3.3,-4.25 -7,-7.7 -17.35,-8.05 -10.35,-0.4 -17.85,6.65 -1.3,1.2 -2.4,2.45 -2.2,-2.75 -4.65,-5.45 -18.85,-20.35 -46.55,-21.45 -27.75,-1.05 -48.15,17.8 -1.9,1.75 -3.6,3.65 -11.85,-7.35 -26.9,-7.95 -13.3,-0.5 -24.5,4.4 -3.5,-6.9 -9.1,-12.95 -12.8,-13.85 -30.65,-16.95 l 0.05,175.25 H 1680 Z"
         id="path29"
         inkscape:connector-curvature="0"
         style="fill:#e7fdff;stroke:none" />
    </g>
    <g
       id="Layer0_1_MEMBER_3_FILL">
      <path
         d="m 1204.95,881.5 q -4.6,-4.55 -11.05,-4.55 h -0.05 q -6.4,0 -11,4.55 -3.75,3.7 -4.45,8.65 -0.1,0.9 -0.15,1.85 v 53.9 h 31.25 v -53.5 q 0,-0.1 0,-0.2 v -0.35 q -0.2,-5.4 -3.7,-9.4 v -0.05 q -0.4,-0.45 -0.85,-0.9 m 160.5,27.35 q -0.2,-5.4 -3.7,-9.4 v -0.05 q -0.4,-0.45 -0.85,-0.9 -4.6,-4.55 -11.05,-4.55 h -0.05 q -6.4,0 -11,4.55 -3.75,3.7 -4.45,8.65 -0.1,0.9 -0.15,1.85 v 53.9 h 31.25 v -53.5 q 0,-0.1 0,-0.2 v -0.35 M 1327.7,859.8 q -0.15,-5.4 -3.7,-9.4 v -0.05 q -0.4,-0.45 -0.85,-0.9 -4.6,-4.5 -11.05,-4.5 -6.45,0 -11.05,4.5 -3.75,3.7 -4.4,8.65 -0.15,0.95 -0.2,1.85 v 80 h 31.25 v -79.6 q 0,-0.1 0,-0.2 v -0.35 m 240.75,-24 q -0.25,-8.3 -5.65,-14.45 l -0.05,-0.05 q -0.6,-0.7 -1.3,-1.4 -7.05,-6.95 -16.95,-6.95 h -0.05 q -9.9,0 -16.95,6.95 -5.75,5.7 -6.8,13.3 -0.2,1.4 -0.25,2.85 v 122.9 h 48 v -122.3 q 0,-0.15 0,-0.3 v -0.55 m 58,40.85 q 0,-0.15 0,-0.3 v -0.55 q -0.25,-8.3 -5.65,-14.45 l -0.05,-0.05 q -0.6,-0.7 -1.3,-1.4 -7.05,-6.95 -16.95,-6.95 h -0.05 q -9.9,0 -16.95,6.95 -5.75,5.7 -6.8,13.3 -0.2,1.4 -0.25,2.85 v 82.85 h 48 z"
         id="path32"
         inkscape:connector-curvature="0"
         style="fill:#80be1f;stroke:none" />
    </g>
    <g
       id="Layer0_1_MEMBER_4_FILL">
      <path
         d="m 1680,915.05 q -24.8,3.45 -49.3,8 -38.1,7 -76.7,12.6 -38.2,5.55 -77.85,6.2 -38.2,0.45 -75.55,-5.75 -38.1,-6.25 -74.3,-16.05 -11.75,-3.15 -23.75,-5.75 -26.85,-5.8 -54.8,-8.7 -40.25,-3.95 -79.35,1.75 -24.15,3.6 -48.4,6.95 V 1120 h 560 z"
         id="path35"
         inkscape:connector-curvature="0"
         style="fill:#a0db44;stroke:none" />
      <path
         d="m 1680,915.05 v -6.65 q -24.8,3.55 -49.3,8.25 -38.1,7.25 -76.7,13 -38.2,5.75 -77.85,6.45 -38.2,0.45 -75.55,-5.95 -38.1,-6.45 -74.3,-16.6 -11.75,-3.25 -23.75,-5.9 -26.85,-6 -54.8,-9 -40.25,-4.1 -79.35,1.8 -24.15,3.7 -48.4,7.2 v 6.65 q 24.25,-3.35 48.4,-6.95 39.1,-5.7 79.35,-1.75 27.95,2.9 54.8,8.7 12,2.6 23.75,5.75 36.2,9.8 74.3,16.05 37.35,6.2 75.55,5.75 39.65,-0.65 77.85,-6.2 38.6,-5.6 76.7,-12.6 24.5,-4.55 49.3,-8 z"
         id="path37"
         inkscape:connector-curvature="0"
         style="fill:#95cb41;stroke:none" />
      <path
         d="m 1680,908.4 v -4.75 q -24.8,3.65 -49.3,8.45 -38.1,7.4 -76.7,13.3 -38.2,5.85 -77.85,6.55 -38.2,0.5 -75.55,-6.05 -38.1,-6.6 -74.3,-17 -11.75,-3.3 -23.75,-6 -26.85,-6.15 -54.8,-9.2 -40.25,-4.2 -79.35,1.85 -24.15,3.75 -48.4,7.35 v 4.75 q 24.25,-3.5 48.4,-7.2 39.1,-5.9 79.35,-1.8 27.95,3 54.8,9 12,2.65 23.75,5.9 36.2,10.15 74.3,16.6 37.35,6.4 75.55,5.95 39.65,-0.7 77.85,-6.45 38.6,-5.75 76.7,-13 24.5,-4.7 49.3,-8.25 z"
         id="path39"
         inkscape:connector-curvature="0"
         style="fill:#caf38a;stroke:none" />
    </g>
    <g
       id="Layer0_2_MEMBER_0_FILL">
      <path
         d="M 1120,560 H 560 v 560 h 560 z"
         id="path42"
         inkscape:connector-curvature="0"
         style="fill:#d0f4f7;stroke:none" />
    </g>
    <g
       id="Layer0_2_MEMBER_1_FILL">
      <path
         d="m 687.6,767.75 q -3.95,-3.65 -8.25,-6.4 -14.05,-9.05 -31.75,-8.3 -23.15,0.9 -38.85,17.75 -0.1,0.1 -0.2,0.25 -0.85,-0.9 -1.7,-1.8 -1.6,-1.6 -3.25,-3 -14.95,-12.9 -35.3,-12.9 -4.3,0 -8.4,0.6 V 1075 h 559.95 l 0.05,-321.3 q -17.85,3.1 -30.65,16.95 -5.6,6.05 -9.1,12.95 -11.2,-4.9 -24.5,-4.4 -15.05,0.6 -26.9,7.95 -1.7,-1.9 -3.6,-3.65 -20.4,-18.85 -48.15,-17.8 -27.7,1.1 -46.55,21.45 -2.45,2.7 -4.65,5.45 -1.1,-1.25 -2.4,-2.45 -7.5,-7.05 -17.85,-6.65 -10.35,0.35 -17.35,8.05 -2,1.95 -3.3,4.25 -12.85,-6.95 -28.5,-6.3 -16.6,0.6 -29.35,9.45 -14.65,-10.25 -33.55,-9.5 -21.1,0.85 -36.05,14.95 l -0.05,-0.05 q -16.95,-15.55 -40.1,-14.7 -7.45,0.3 -14.2,2.3 -4.15,-13.7 -15.5,-24.2 z"
         id="path45"
         inkscape:connector-curvature="0"
         style="fill:#dcfafc;stroke:none" />
    </g>
    <g
       id="Layer0_2_MEMBER_2_FILL">
      <path
         d="m 599.75,831.6 q -3.5,-6.9 -9.1,-12.95 Q 577.85,804.8 560,801.7 l 0.05,175.25 H 1120 v -175 q -4.1,-0.6 -8.4,-0.6 -20.35,0 -35.3,12.9 -1.65,1.4 -3.25,3 -0.85,0.9 -1.7,1.8 -0.1,-0.15 -0.2,-0.25 -15.7,-16.85 -38.85,-17.75 -17.7,-0.75 -31.75,8.3 -4.3,2.75 -8.25,6.4 -11.35,10.5 -15.5,24.2 -6.75,-2 -14.2,-2.3 -23.15,-0.85 -40.1,14.7 l -0.05,0.05 q -14.95,-14.1 -36.05,-14.95 -18.9,-0.75 -33.55,9.5 -12.75,-8.85 -29.35,-9.45 -15.65,-0.65 -28.5,6.3 -1.3,-2.3 -3.3,-4.25 -7,-7.7 -17.35,-8.05 -10.35,-0.4 -17.85,6.65 -1.3,1.2 -2.4,2.45 -2.2,-2.75 -4.65,-5.45 -18.85,-20.35 -46.55,-21.45 -27.75,-1.05 -48.15,17.8 -1.9,1.75 -3.6,3.65 -11.85,-7.35 -26.9,-7.95 -13.3,-0.5 -24.5,4.4 z"
         id="path48"
         inkscape:connector-curvature="0"
         style="fill:#e7fdff;stroke:none" />
    </g>
    <g
       id="Layer0_2_MEMBER_3_FILL">
      <path
         d="m 608.4,907.35 q -24.15,3.6 -48.4,6.95 V 1120 h 560 V 915.05 q -24.8,3.45 -49.3,8 -38.1,7 -76.7,12.6 -38.2,5.55 -77.85,6.2 -38.2,0.45 -75.55,-5.75 -38.1,-6.25 -74.3,-16.05 -11.75,-3.15 -23.75,-5.75 -26.85,-5.8 -54.8,-8.7 -40.25,-3.95 -79.35,1.75 z"
         id="path51"
         inkscape:connector-curvature="0"
         style="fill:#c4edf0;stroke:none" />
    </g>
    <g
       id="Layer0_2_MEMBER_4_FILL">
      <path
         d="m 707.95,837.95 q -0.1,-3.65 -2.7,-6.2 -2.6,-2.6 -6.4,-2.6 -3.7,0 -6.4,2.6 -2.6,2.55 -2.65,6.2 v 29.9 h -0.6 q -0.55,0 -1.05,-0.4 v -0.1 q -0.55,-0.45 -0.55,-0.85 v -13.25 q 0,-2.2 -1.55,-3.85 -1.55,-1.5 -3.7,-1.5 -2.2,0 -3.85,1.5 -1.5,1.65 -1.5,3.85 v 15.15 q 0,4.9 3.3,8.5 0.2,0.2 0.6,0.5 3.45,3.25 8.3,3.25 h 0.6 V 909 h 18.15 v -38.95 h 0.25 q 5,0 8.4,-3.35 0.3,-0.2 0.6,-0.5 3.35,-3.6 3.35,-8.4 v -15.25 q 0,-2.2 -1.55,-3.75 -1.6,-1.6 -3.8,-1.6 -2.2,0 -3.75,1.6 -1.6,1.55 -1.6,3.75 v 13.25 q 0,0.4 -0.5,0.85 l -0.1,0.1 q -0.35,0.4 -1.05,0.4 h -0.25 v -19.2 M 935.7,900.5 q -1.4,-1.35 -3.35,-1.35 -2,0 -3.35,1.35 -1.35,1.35 -1.4,3.25 v 10.05 h -0.15 q -0.35,0 -0.55,-0.2 l -0.05,-0.05 q -0.25,-0.25 -0.25,-0.45 v -6.95 q 0,-1.15 -0.85,-1.95 -0.8,-0.85 -1.95,-0.85 -1.15,0 -2,0.85 -0.8,0.8 -0.8,1.95 v 8 q 0,2.5 1.75,4.4 0.15,0.15 0.3,0.25 1.8,1.75 4.4,1.75 h 0.15 V 953 h 9.5 v -26.9 h 0.3 q 2.55,0 4.35,-1.7 0.2,-0.15 0.3,-0.25 1.75,-1.9 1.75,-4.45 v -7.95 q 0,-1.15 -0.8,-2 -0.85,-0.8 -2,-0.8 -1.15,0 -1.95,0.8 -0.8,0.85 -0.8,2 v 6.95 q 0,0.2 -0.3,0.45 v 0.05 q -0.25,0.2 -0.55,0.2 h -0.3 v -15.65 q -0.05,-1.9 -1.4,-3.25 m 125.15,-10.25 v -14.3 q 0,-2.05 -1.45,-3.5 -1.5,-1.5 -3.55,-1.5 -2.05,0 -3.5,1.5 -1.5,1.45 -1.5,3.5 v 12.45 q 0,0.4 -0.4,0.85 l -0.1,0.05 q -0.4,0.4 -1,0.4 h -0.3 v -18 q -0.1,-3.4 -2.45,-5.8 -2.5,-2.45 -6,-2.45 -3.5,0 -6,2.45 -2.45,2.4 -2.55,5.8 v 28 h -0.5 q -0.6,0 -1,-0.4 l -0.05,-0.05 q -0.45,-0.45 -0.45,-0.85 v -12.45 q 0,-2.05 -1.45,-3.5 h -0.05 q -1.45,-1.5 -3.5,-1.5 -2.05,0 -3.55,1.5 -1.45,1.45 -1.45,3.5 v 14.3 q 0,4.5 3.15,7.9 0.2,0.25 0.5,0.45 3.25,3.1 7.85,3.1 h 0.5 v 32.75 h 17 V 901.7 h 0.3 q 4.6,0 7.9,-3.1 0.25,-0.2 0.45,-0.45 3.15,-3.4 3.15,-7.9 z"
         id="path54"
         inkscape:connector-curvature="0"
         style="fill:#80be1f;stroke:none" />
    </g>
    <g
       id="Layer0_2_MEMBER_5_FILL">
      <path
         d="m 608.4,907.35 q -24.15,3.6 -48.4,6.95 V 1120 h 560 V 915.05 q -24.8,3.45 -49.3,8 -38.1,7 -76.7,12.6 -38.2,5.55 -77.85,6.2 -38.2,0.45 -75.55,-5.75 -38.1,-6.25 -74.3,-16.05 -11.75,-3.15 -23.75,-5.75 -26.85,-5.8 -54.8,-8.7 -40.25,-3.95 -79.35,1.75 z"
         id="path57"
         inkscape:connector-curvature="0"
         style="fill:#e7dfc2;stroke:none" />
      <path
         d="m 560,907.65 v 6.65 q 24.25,-3.35 48.4,-6.95 39.1,-5.7 79.35,-1.75 27.95,2.9 54.8,8.7 12,2.6 23.75,5.75 36.2,9.8 74.3,16.05 37.35,6.2 75.55,5.75 39.65,-0.65 77.85,-6.2 38.6,-5.6 76.7,-12.6 24.5,-4.55 49.3,-8 v -6.65 q -24.8,3.55 -49.3,8.25 -38.1,7.25 -76.7,13 -38.2,5.75 -77.85,6.45 -38.2,0.45 -75.55,-5.95 -38.1,-6.45 -74.3,-16.6 -11.75,-3.25 -23.75,-5.9 -26.85,-6 -54.8,-9 -40.25,-4.1 -79.35,1.8 -24.15,3.7 -48.4,7.2 z"
         id="path59"
         inkscape:connector-curvature="0"
         style="fill:#dbd3b5;stroke:none" />
      <path
         d="m 560,902.9 v 4.75 q 24.25,-3.5 48.4,-7.2 39.1,-5.9 79.35,-1.8 27.95,3 54.8,9 12,2.65 23.75,5.9 36.2,10.15 74.3,16.6 37.35,6.4 75.55,5.95 39.65,-0.7 77.85,-6.45 38.6,-5.75 76.7,-13 24.5,-4.7 49.3,-8.25 v -4.75 q -24.8,3.65 -49.3,8.45 -38.1,7.4 -76.7,13.3 -38.2,5.85 -77.85,6.55 -38.2,0.5 -75.55,-6.05 -38.1,-6.6 -74.3,-17 -11.75,-3.3 -23.75,-6 -26.85,-6.15 -54.8,-9.2 -40.25,-4.2 -79.35,1.85 -24.15,3.75 -48.4,7.35 z"
         id="path61"
         inkscape:connector-curvature="0"
         style="fill:#f0ead4;stroke:none" />
    </g>
    <g
       id="Layer0_3_MEMBER_0_FILL">
      <path
         d="M 560,560 H 0 v 560 h 560 z"
         id="path64"
         inkscape:connector-curvature="0"
         style="fill:#d0f4f7;stroke:none" />
    </g>
    <g
       id="Layer0_3_MEMBER_1_FILL">
      <path
         d="m 48.75,770.8 q -0.1,0.1 -0.2,0.25 -0.85,-0.9 -1.7,-1.8 -1.6,-1.6 -3.25,-3 -14.95,-12.9 -35.3,-12.9 -4.3,0 -8.4,0.6 V 1075 h 559.95 l 0.05,-321.3 q -17.85,3.1 -30.65,16.95 -5.6,6.05 -9.1,12.95 -11.2,-4.9 -24.5,-4.4 -15.05,0.6 -26.9,7.95 -1.7,-1.9 -3.6,-3.65 -20.4,-18.85 -48.15,-17.8 -27.7,1.1 -46.55,21.45 -2.45,2.7 -4.65,5.45 -1.1,-1.25 -2.4,-2.45 -7.5,-7.05 -17.85,-6.65 -10.35,0.35 -17.35,8.05 -2,1.95 -3.3,4.25 -12.85,-6.95 -28.5,-6.3 -16.6,0.6 -29.35,9.45 -14.65,-10.25 -33.55,-9.5 -21.1,0.85 -36.05,14.95 l -0.05,-0.05 q -16.95,-15.55 -40.1,-14.7 -7.45,0.3 -14.2,2.3 -4.15,-13.7 -15.5,-24.2 -3.95,-3.65 -8.25,-6.4 -14.05,-9.05 -31.75,-8.3 -23.15,0.9 -38.85,17.75 z"
         id="path67"
         inkscape:connector-curvature="0"
         style="fill:#dcfafc;stroke:none" />
    </g>
    <g
       id="Layer0_3_MEMBER_2_FILL">
      <path
         d="m 560,801.95 q -4.1,-0.6 -8.4,-0.6 -20.35,0 -35.3,12.9 -1.65,1.4 -3.25,3 -0.85,0.9 -1.7,1.8 -0.1,-0.15 -0.2,-0.25 -15.7,-16.85 -38.85,-17.75 -17.7,-0.75 -31.75,8.3 -4.3,2.75 -8.25,6.4 -11.35,10.5 -15.5,24.2 -6.75,-2 -14.2,-2.3 -23.15,-0.85 -40.1,14.7 l -0.05,0.05 q -14.95,-14.1 -36.05,-14.95 -18.9,-0.75 -33.55,9.5 -12.75,-8.85 -29.35,-9.45 -15.65,-0.65 -28.5,6.3 -1.3,-2.3 -3.3,-4.25 -7,-7.7 -17.35,-8.05 -10.35,-0.4 -17.85,6.65 -1.3,1.2 -2.4,2.45 -2.2,-2.75 -4.65,-5.45 -18.85,-20.35 -46.55,-21.45 -27.75,-1.05 -48.15,17.8 -1.9,1.75 -3.6,3.65 -11.85,-7.35 -26.9,-7.95 -13.3,-0.5 -24.5,4.4 -3.5,-6.9 -9.1,-12.95 Q 17.85,804.8 0,801.7 L 0.05,976.95 H 560 Z"
         id="path70"
         inkscape:connector-curvature="0"
         style="fill:#e7fdff;stroke:none" />
    </g>
    <g
       id="Layer0_3_MEMBER_3_FILL">
      <path
         d="m 560,915.05 q -24.8,3.45 -49.3,8 -38.1,7 -76.7,12.6 -38.2,5.55 -77.85,6.2 -38.2,0.45 -75.55,-5.75 -38.1,-6.25 -74.3,-16.05 -11.75,-3.15 -23.75,-5.75 -26.85,-5.8 -54.8,-8.7 Q 87.5,901.65 48.4,907.35 24.25,910.95 0,914.3 V 1120 h 560 z"
         id="path73"
         inkscape:connector-curvature="0"
         style="fill:#c4edf0;stroke:none" />
    </g>
    <g
       id="Layer0_3_MEMBER_4_FILL">
      <path
         d="m 560,915.05 q -24.8,3.45 -49.3,8 -38.1,7 -76.7,12.6 -38.2,5.55 -77.85,6.2 -38.2,0.45 -75.55,-5.75 -38.1,-6.25 -74.3,-16.05 -11.75,-3.15 -23.75,-5.75 -26.85,-5.8 -54.8,-8.7 Q 87.5,901.65 48.4,907.35 24.25,910.95 0,914.3 V 1120 h 560 z"
         id="path76"
         inkscape:connector-curvature="0"
         style="fill:#a0db44;stroke:none" />
      <path
         d="m 560,915.05 v -6.65 q -24.8,3.55 -49.3,8.25 -38.1,7.25 -76.7,13 -38.2,5.75 -77.85,6.45 -38.2,0.45 -75.55,-5.95 -38.1,-6.45 -74.3,-16.6 -11.75,-3.25 -23.75,-5.9 -26.85,-6 -54.8,-9 -40.25,-4.1 -79.35,1.8 -24.15,3.7 -48.4,7.2 v 6.65 q 24.25,-3.35 48.4,-6.95 39.1,-5.7 79.35,-1.75 27.95,2.9 54.8,8.7 12,2.6 23.75,5.75 36.2,9.8 74.3,16.05 37.35,6.2 75.55,5.75 39.65,-0.65 77.85,-6.2 38.6,-5.6 76.7,-12.6 24.5,-4.55 49.3,-8 z"
         id="path78"
         inkscape:connector-curvature="0"
         style="fill:#95cb41;stroke:none" />
      <path
         d="m 560,908.4 v -4.75 q -24.8,3.65 -49.3,8.45 -38.1,7.4 -76.7,13.3 -38.2,5.85 -77.85,6.55 -38.2,0.5 -75.55,-6.05 -38.1,-6.6 -74.3,-17 -11.75,-3.3 -23.75,-6 -26.85,-6.15 -54.8,-9.2 Q 87.5,889.5 48.4,895.55 24.25,899.3 0,902.9 v 4.75 q 24.25,-3.5 48.4,-7.2 39.1,-5.9 79.35,-1.8 27.95,3 54.8,9 12,2.65 23.75,5.9 36.2,10.15 74.3,16.6 37.35,6.4 75.55,5.95 39.65,-0.7 77.85,-6.45 38.6,-5.75 76.7,-13 24.5,-4.7 49.3,-8.25 z"
         id="path80"
         inkscape:connector-curvature="0"
         style="fill:#caf38a;stroke:none" />
    </g>
    <g
       id="Layer0_4_MEMBER_0_FILL">
      <path
         d="M 0,0 V 560 H 560 V 0 Z"
         id="path83"
         inkscape:connector-curvature="0"
         style="fill:#d0f4f7;stroke:none" />
    </g>
    <g
       id="Layer0_4_MEMBER_1_FILL">
      <path
         d="m 468.75,227.15 q -1.7,-1.9 -3.6,-3.65 -20.4,-18.85 -48.15,-17.8 -27.7,1.1 -46.55,21.45 -2.45,2.7 -4.65,5.45 -1.1,-1.25 -2.4,-2.45 -7.5,-7.05 -17.85,-6.65 -10.35,0.35 -17.35,8.05 -2,1.95 -3.3,4.25 -12.85,-6.95 -28.5,-6.3 -16.6,0.6 -29.35,9.45 -14.65,-10.25 -33.55,-9.5 -21.1,0.85 -36.05,14.95 l -0.05,-0.05 q -16.95,-15.55 -40.1,-14.7 -7.45,0.3 -14.2,2.3 -4.15,-13.7 -15.5,-24.2 -3.95,-3.65 -8.25,-6.4 -14.05,-9.05 -31.75,-8.3 -23.15,0.9 -38.85,17.75 -0.1,0.1 -0.2,0.25 -0.85,-0.9 -1.7,-1.8 -1.6,-1.6 -3.25,-3 -14.95,-12.9 -35.3,-12.9 -4.3,0 -8.4,0.6 V 515 h 559.95 l 0.05,-321.3 q -17.85,3.1 -30.65,16.95 -5.6,6.05 -9.1,12.95 -11.2,-4.9 -24.5,-4.4 -15.05,0.6 -26.9,7.95 z"
         id="path86"
         inkscape:connector-curvature="0"
         style="fill:#dcfafc;stroke:none" />
    </g>
    <g
       id="Layer0_4_MEMBER_2_FILL">
      <path
         d="m 432.3,255.75 q -11.35,10.5 -15.5,24.2 -6.75,-2 -14.2,-2.3 -23.15,-0.85 -40.1,14.7 l -0.05,0.05 q -14.95,-14.1 -36.05,-14.95 -18.9,-0.75 -33.55,9.5 -12.75,-8.85 -29.35,-9.45 -15.65,-0.65 -28.5,6.3 -1.3,-2.3 -3.3,-4.25 -7,-7.7 -17.35,-8.05 -10.35,-0.4 -17.85,6.65 -1.3,1.2 -2.4,2.45 -2.2,-2.75 -4.65,-5.45 -18.85,-20.35 -46.55,-21.45 -27.75,-1.05 -48.15,17.8 -1.9,1.75 -3.6,3.65 -11.85,-7.35 -26.9,-7.95 -13.3,-0.5 -24.5,4.4 -3.5,-6.9 -9.1,-12.95 Q 17.85,244.8 0,241.7 L 0.05,416.95 H 560 v -175 q -4.1,-0.6 -8.4,-0.6 -20.35,0 -35.3,12.9 -1.65,1.4 -3.25,3 -0.85,0.9 -1.7,1.8 -0.1,-0.15 -0.2,-0.25 -15.7,-16.85 -38.85,-17.75 -17.7,-0.75 -31.75,8.3 -4.3,2.75 -8.25,6.4 z"
         id="path89"
         inkscape:connector-curvature="0"
         style="fill:#e7fdff;stroke:none" />
    </g>
    <g
       id="Layer0_4_MEMBER_3_FILL">
      <path
         d="m 434,375.65 q -38.2,5.55 -77.85,6.2 -38.2,0.45 -75.55,-5.75 -38.1,-6.25 -74.3,-16.05 -11.75,-3.15 -23.75,-5.75 -26.85,-5.8 -54.8,-8.7 Q 87.5,341.65 48.4,347.35 24.25,350.95 0,354.3 V 560 H 560 V 355.05 q -24.8,3.45 -49.3,8 -38.1,7 -76.7,12.6 z"
         id="path92"
         inkscape:connector-curvature="0"
         style="fill:#c4edf0;stroke:none" />
    </g>
    <g
       id="Layer0_5_MEMBER_0_FILL">
      <path
         d="M 1120,560 V 0 H 560 v 560 z"
         id="path95"
         inkscape:connector-curvature="0"
         style="fill:#d0f4f7;stroke:none" />
    </g>
    <g
       id="Layer0_5_MEMBER_1_FILL">
      <path
         d="m 1089.25,210.65 q -5.6,6.05 -9.1,12.95 -11.2,-4.9 -24.5,-4.4 -15.05,0.6 -26.9,7.95 -1.7,-1.9 -3.6,-3.65 -20.4,-18.85 -48.15,-17.8 -27.7,1.1 -46.55,21.45 -2.45,2.7 -4.65,5.45 -1.1,-1.25 -2.4,-2.45 -7.5,-7.05 -17.85,-6.65 -10.35,0.35 -17.35,8.05 -2,1.95 -3.3,4.25 -12.85,-6.95 -28.5,-6.3 -16.6,0.6 -29.35,9.45 -14.65,-10.25 -33.55,-9.5 -21.1,0.85 -36.05,14.95 l -0.05,-0.05 q -16.95,-15.55 -40.1,-14.7 -7.45,0.3 -14.2,2.3 -4.15,-13.7 -15.5,-24.2 -3.95,-3.65 -8.25,-6.4 -14.05,-9.05 -31.75,-8.3 -23.15,0.9 -38.85,17.75 -0.1,0.1 -0.2,0.25 -0.85,-0.9 -1.7,-1.8 -1.6,-1.6 -3.25,-3 -14.95,-12.9 -35.3,-12.9 -4.3,0 -8.4,0.6 V 515 h 559.95 l 0.05,-321.3 q -17.85,3.1 -30.65,16.95 z"
         id="path98"
         inkscape:connector-curvature="0"
         style="fill:#dcfafc;stroke:none" />
    </g>
    <g
       id="Layer0_5_MEMBER_2_FILL">
      <path
         d="m 1120,241.95 q -4.1,-0.6 -8.4,-0.6 -20.35,0 -35.3,12.9 -1.65,1.4 -3.25,3 -0.85,0.9 -1.7,1.8 -0.1,-0.15 -0.2,-0.25 -15.7,-16.85 -38.85,-17.75 -17.7,-0.75 -31.75,8.3 -4.3,2.75 -8.25,6.4 -11.35,10.5 -15.5,24.2 -6.75,-2 -14.2,-2.3 -23.15,-0.85 -40.1,14.7 l -0.05,0.05 q -14.95,-14.1 -36.05,-14.95 -18.9,-0.75 -33.55,9.5 -12.75,-8.85 -29.35,-9.45 -15.65,-0.65 -28.5,6.3 -1.3,-2.3 -3.3,-4.25 -7,-7.7 -17.35,-8.05 -10.35,-0.4 -17.85,6.65 -1.3,1.2 -2.4,2.45 -2.2,-2.75 -4.65,-5.45 -18.85,-20.35 -46.55,-21.45 -27.75,-1.05 -48.15,17.8 -1.9,1.75 -3.6,3.65 -11.85,-7.35 -26.9,-7.95 -13.3,-0.5 -24.5,4.4 -3.5,-6.9 -9.1,-12.95 Q 577.85,244.8 560,241.7 l 0.05,175.25 H 1120 Z"
         id="path101"
         inkscape:connector-curvature="0"
         style="fill:#e7fdff;stroke:none" />
    </g>
    <g
       id="Layer0_5_MEMBER_3_FILL">
      <path
         d="m 1120,355.05 q -24.8,3.45 -49.3,8 -38.1,7 -76.7,12.6 -38.2,5.55 -77.85,6.2 -38.2,0.45 -75.55,-5.75 -38.1,-6.25 -74.3,-16.05 -11.75,-3.15 -23.75,-5.75 -26.85,-5.8 -54.8,-8.7 -40.25,-3.95 -79.35,1.75 -24.15,3.6 -48.4,6.95 V 560 h 560 z"
         id="path104"
         inkscape:connector-curvature="0"
         style="fill:#c4edf0;stroke:none" />
    </g>
    <g
       id="Layer0_5_MEMBER_4_FILL">
      <path
         d="m 937.1,343.75 q -0.05,-1.9 -1.4,-3.25 -1.4,-1.35 -3.35,-1.35 -2,0 -3.35,1.35 -1.35,1.35 -1.4,3.25 v 10.05 h -0.15 q -0.35,0 -0.55,-0.2 l -0.05,-0.05 q -0.25,-0.25 -0.25,-0.45 v -6.95 q 0,-1.15 -0.85,-1.95 -0.8,-0.85 -1.95,-0.85 -1.15,0 -2,0.85 -0.8,0.8 -0.8,1.95 v 8 q 0,2.5 1.75,4.4 0.15,0.15 0.3,0.25 1.8,1.75 4.4,1.75 h 0.15 V 393 h 9.5 v -26.9 h 0.3 q 2.55,0 4.35,-1.7 0.2,-0.15 0.3,-0.25 1.75,-1.9 1.75,-4.45 v -7.95 q 0,-1.15 -0.8,-2 -0.85,-0.8 -2,-0.8 -1.15,0 -1.95,0.8 -0.8,0.85 -0.8,2 v 6.95 q 0,0.2 -0.3,0.45 v 0.05 q -0.25,0.2 -0.55,0.2 h -0.3 V 343.75 M 682.35,287.9 q -2.2,0 -3.85,1.5 -1.5,1.65 -1.5,3.85 v 15.15 q 0,4.9 3.3,8.5 0.2,0.2 0.6,0.5 3.45,3.25 8.3,3.25 h 0.6 V 349 h 18.15 v -38.95 h 0.25 q 5,0 8.4,-3.35 0.3,-0.2 0.6,-0.5 3.35,-3.6 3.35,-8.4 v -15.25 q 0,-2.2 -1.55,-3.75 -1.6,-1.6 -3.8,-1.6 -2.2,0 -3.75,1.6 -1.6,1.55 -1.6,3.75 v 13.25 q 0,0.4 -0.5,0.85 l -0.1,0.1 q -0.35,0.4 -1.05,0.4 h -0.25 v -19.2 q -0.1,-3.65 -2.7,-6.2 -2.6,-2.6 -6.4,-2.6 -3.7,0 -6.4,2.6 -2.6,2.55 -2.65,6.2 v 29.9 h -0.6 q -0.55,0 -1.05,-0.4 v -0.1 q -0.55,-0.45 -0.55,-0.85 v -13.25 q 0,-2.2 -1.55,-3.85 -1.55,-1.5 -3.7,-1.5 m 358.25,15.55 q -3.5,0 -6,2.45 -2.45,2.4 -2.55,5.8 v 28 h -0.5 q -0.6,0 -1,-0.4 l -0.05,-0.05 q -0.45,-0.45 -0.45,-0.85 v -12.45 q 0,-2.05 -1.45,-3.5 h -0.05 q -1.45,-1.5 -3.5,-1.5 -2.05,0 -3.55,1.5 -1.45,1.45 -1.45,3.5 v 14.3 q 0,4.5 3.15,7.9 0.2,0.25 0.5,0.45 3.25,3.1 7.85,3.1 h 0.5 v 32.75 h 17 V 341.7 h 0.3 q 4.6,0 7.9,-3.1 0.25,-0.2 0.45,-0.45 3.15,-3.4 3.15,-7.9 v -14.3 q 0,-2.05 -1.45,-3.5 -1.5,-1.5 -3.55,-1.5 -2.05,0 -3.5,1.5 -1.5,1.45 -1.5,3.5 v 12.45 q 0,0.4 -0.4,0.85 l -0.1,0.05 q -0.4,0.4 -1,0.4 h -0.3 v -18 q -0.1,-3.4 -2.45,-5.8 -2.5,-2.45 -6,-2.45 z"
         id="path107"
         inkscape:connector-curvature="0"
         style="fill:#c4edf0;stroke:none" />
    </g>
    <g
       id="Layer0_6_MEMBER_0_FILL">
      <path
         d="M 1680,560 V 0 h -560 v 560 z"
         id="path110"
         inkscape:connector-curvature="0"
         style="fill:#d0f4f7;stroke:none" />
    </g>
    <g
       id="Layer0_6_MEMBER_1_FILL">
      <path
         d="m 1649.25,210.65 q -5.6,6.05 -9.1,12.95 -11.2,-4.9 -24.5,-4.4 -15.05,0.6 -26.9,7.95 -1.7,-1.9 -3.6,-3.65 -20.4,-18.85 -48.15,-17.8 -27.7,1.1 -46.55,21.45 -2.45,2.7 -4.65,5.45 -1.1,-1.25 -2.4,-2.45 -7.5,-7.05 -17.85,-6.65 -10.35,0.35 -17.35,8.05 -2,1.95 -3.3,4.25 -12.85,-6.95 -28.5,-6.3 -16.6,0.6 -29.35,9.45 -14.65,-10.25 -33.55,-9.5 -21.1,0.85 -36.05,14.95 l -0.05,-0.05 q -16.95,-15.55 -40.1,-14.7 -7.45,0.3 -14.2,2.3 -4.15,-13.7 -15.5,-24.2 -3.95,-3.65 -8.25,-6.4 -14.05,-9.05 -31.75,-8.3 -23.15,0.9 -38.85,17.75 -0.1,0.1 -0.2,0.25 -0.85,-0.9 -1.7,-1.8 -1.6,-1.6 -3.25,-3 -14.95,-12.9 -35.3,-12.9 -4.3,0 -8.4,0.6 V 515 h 559.95 l 0.05,-321.3 q -17.85,3.1 -30.65,16.95 z"
         id="path113"
         inkscape:connector-curvature="0"
         style="fill:#dcfafc;stroke:none" />
    </g>
    <g
       id="Layer0_6_MEMBER_2_FILL">
      <path
         d="m 1680,241.95 q -4.1,-0.6 -8.4,-0.6 -20.35,0 -35.3,12.9 -1.65,1.4 -3.25,3 -0.85,0.9 -1.7,1.8 -0.1,-0.15 -0.2,-0.25 -15.7,-16.85 -38.85,-17.75 -17.7,-0.75 -31.75,8.3 -4.3,2.75 -8.25,6.4 -11.35,10.5 -15.5,24.2 -6.75,-2 -14.2,-2.3 -23.15,-0.85 -40.1,14.7 l -0.05,0.05 q -14.95,-14.1 -36.05,-14.95 -18.9,-0.75 -33.55,9.5 -12.75,-8.85 -29.35,-9.45 -15.65,-0.65 -28.5,6.3 -1.3,-2.3 -3.3,-4.25 -7,-7.7 -17.35,-8.05 -10.35,-0.4 -17.85,6.65 -1.3,1.2 -2.4,2.45 -2.2,-2.75 -4.65,-5.45 -18.85,-20.35 -46.55,-21.45 -27.75,-1.05 -48.15,17.8 -1.9,1.75 -3.6,3.65 -11.85,-7.35 -26.9,-7.95 -13.3,-0.5 -24.5,4.4 -3.5,-6.9 -9.1,-12.95 -12.8,-13.85 -30.65,-16.95 l 0.05,175.25 H 1680 Z"
         id="path116"
         inkscape:connector-curvature="0"
         style="fill:#e7fdff;stroke:none" />
    </g>
    <g
       id="Layer0_6_MEMBER_3_FILL">
      <path
         d="m 1680,355.05 q -24.8,3.45 -49.3,8 -38.1,7 -76.7,12.6 -38.2,5.55 -77.85,6.2 -38.2,0.45 -75.55,-5.75 -38.1,-6.25 -74.3,-16.05 -11.75,-3.15 -23.75,-5.75 -26.85,-5.8 -54.8,-8.7 -40.25,-3.95 -79.35,1.75 -24.15,3.6 -48.4,6.95 V 560 h 560 z"
         id="path119"
         inkscape:connector-curvature="0"
         style="fill:#c4edf0;stroke:none" />
    </g>
    <g
       id="Layer0_6_MEMBER_4_FILL">
      <path
         d="m 1568.45,275.8 q -0.25,-8.3 -5.65,-14.45 l -0.05,-0.05 q -0.6,-0.7 -1.3,-1.4 -7.05,-6.95 -16.95,-6.95 h -0.05 q -9.9,0 -16.95,6.95 -5.75,5.7 -6.8,13.3 -0.2,1.4 -0.25,2.85 v 122.9 h 48 v -122.3 q 0,-0.15 0,-0.3 v -0.55 m 58,40.85 q 0,-0.15 0,-0.3 v -0.55 q -0.25,-8.3 -5.65,-14.45 l -0.05,-0.05 q -0.6,-0.7 -1.3,-1.4 -7.05,-6.95 -16.95,-6.95 h -0.05 q -9.9,0 -16.95,6.95 -5.75,5.7 -6.8,13.3 -0.2,1.4 -0.25,2.85 v 82.85 h 48 z"
         id="path122"
         inkscape:connector-curvature="0"
         style="fill:#c4edf0;stroke:none" />
    </g>
    <g
       id="Layer0_6_MEMBER_5_FILL">
      <path
         d="m 1193.85,316.95 q -6.4,0 -11,4.55 -3.75,3.7 -4.45,8.65 -0.1,0.9 -0.15,1.85 v 53.9 h 31.25 v -53.5 q 0,-0.1 0,-0.2 v -0.35 q -0.2,-5.4 -3.7,-9.4 v -0.05 q -0.4,-0.45 -0.85,-0.9 -4.6,-4.55 -11.05,-4.55 h -0.05 m 167.9,22.5 v -0.05 q -0.4,-0.45 -0.85,-0.9 -4.6,-4.55 -11.05,-4.55 h -0.05 q -6.4,0 -11,4.55 -3.75,3.7 -4.45,8.65 -0.1,0.9 -0.15,1.85 v 53.9 h 31.25 v -53.5 q 0,-0.1 0,-0.2 v -0.35 q -0.2,-5.4 -3.7,-9.4 m -38.6,-50 q -4.6,-4.5 -11.05,-4.5 -6.45,0 -11.05,4.5 -3.75,3.7 -4.4,8.65 -0.15,0.95 -0.2,1.85 v 80 h 31.25 v -79.6 q 0,-0.1 0,-0.2 v -0.35 q -0.15,-5.4 -3.7,-9.4 v -0.05 q -0.4,-0.45 -0.85,-0.9 z"
         id="path125"
         inkscape:connector-curvature="0"
         style="fill:#c4edf0;stroke:none" />
    </g>
    <g
       id="Layer0_7_MEMBER_0_FILL">
      <path
         d="M 2240,560 V 0 h -560 v 560 z"
         id="path128"
         inkscape:connector-curvature="0"
         style="fill:#d0f4f7;stroke:none" />
    </g>
    <g
       id="Layer0_7_MEMBER_1_FILL">
      <path
         d="m 2045.8,232.6 q -1.1,-1.25 -2.4,-2.45 -7.5,-7.05 -17.85,-6.65 -10.35,0.35 -17.35,8.05 -2,1.95 -3.3,4.25 -12.85,-6.95 -28.5,-6.3 -16.6,0.6 -29.35,9.45 -14.65,-10.25 -33.55,-9.5 -21.1,0.85 -36.05,14.95 l -0.05,-0.05 q -16.95,-15.55 -40.1,-14.7 -7.45,0.3 -14.2,2.3 -4.15,-13.7 -15.5,-24.2 -3.95,-3.65 -8.25,-6.4 -14.05,-9.05 -31.75,-8.3 -23.15,0.9 -38.85,17.75 -0.1,0.1 -0.2,0.25 -0.85,-0.9 -1.7,-1.8 -1.6,-1.6 -3.25,-3 -14.95,-12.9 -35.3,-12.9 -4.3,0 -8.4,0.6 V 515 h 559.95 l 0.05,-321.3 q -17.85,3.1 -30.65,16.95 -5.6,6.05 -9.1,12.95 -11.2,-4.9 -24.5,-4.4 -15.05,0.6 -26.9,7.95 -1.7,-1.9 -3.6,-3.65 -20.4,-18.85 -48.15,-17.8 -27.7,1.1 -46.55,21.45 -2.45,2.7 -4.65,5.45 z"
         id="path131"
         inkscape:connector-curvature="0"
         style="fill:#dcfafc;stroke:none" />
    </g>
    <g
       id="Layer0_7_MEMBER_2_FILL">
      <path
         d="m 2042.5,292.35 -0.05,0.05 q -14.95,-14.1 -36.05,-14.95 -18.9,-0.75 -33.55,9.5 -12.75,-8.85 -29.35,-9.45 -15.65,-0.65 -28.5,6.3 -1.3,-2.3 -3.3,-4.25 -7,-7.7 -17.35,-8.05 -10.35,-0.4 -17.85,6.65 -1.3,1.2 -2.4,2.45 -2.2,-2.75 -4.65,-5.45 -18.85,-20.35 -46.55,-21.45 -27.75,-1.05 -48.15,17.8 -1.9,1.75 -3.6,3.65 -11.85,-7.35 -26.9,-7.95 -13.3,-0.5 -24.5,4.4 -3.5,-6.9 -9.1,-12.95 -12.8,-13.85 -30.65,-16.95 l 0.05,175.25 H 2240 v -175 q -4.1,-0.6 -8.4,-0.6 -20.35,0 -35.3,12.9 -1.65,1.4 -3.25,3 -0.85,0.9 -1.7,1.8 -0.1,-0.15 -0.2,-0.25 -15.7,-16.85 -38.85,-17.75 -17.7,-0.75 -31.75,8.3 -4.3,2.75 -8.25,6.4 -11.35,10.5 -15.5,24.2 -6.75,-2 -14.2,-2.3 -23.15,-0.85 -40.1,14.7 z"
         id="path134"
         inkscape:connector-curvature="0"
         style="fill:#e7fdff;stroke:none" />
    </g>
    <g
       id="Layer0_7_MEMBER_3_FILL">
      <path
         d="m 2036.15,381.85 q -38.2,0.45 -75.55,-5.75 -38.1,-6.25 -74.3,-16.05 -11.75,-3.15 -23.75,-5.75 -26.85,-5.8 -54.8,-8.7 -40.25,-3.95 -79.35,1.75 -24.15,3.6 -48.4,6.95 V 560 h 560 V 355.05 q -24.8,3.45 -49.3,8 -38.1,7 -76.7,12.6 -38.2,5.55 -77.85,6.2 z"
         id="path137"
         inkscape:connector-curvature="0"
         style="fill:#c4edf0;stroke:none" />
    </g>
    <g
       id="Layer0_7_MEMBER_4_FILL">
      <path
         d="m 2171.5,348.6 q -0.5,1.5 -0.55,3.1 v 0.05 q 0,0.25 0.1,0.5 0.65,1.55 5.6,2.65 3.45,0.8 7.7,1.1 v 11.9 h 12.2 V 356 q 4.3,-0.3 7.7,-1.1 4.95,-1.1 5.6,-2.65 0.1,-0.25 0.1,-0.5 v -0.05 q -0.05,-1.6 -0.5,-3.1 -1.25,-3.7 -5.2,-6.6 -5.7,-4.1 -13.8,-4.1 -8.05,0 -13.8,4.1 -3.95,2.9 -5.15,6.6 z"
         id="path140"
         inkscape:connector-curvature="0"
         style="fill:#c4edf0;stroke:none" />
    </g>
    <g
       id="Layer0_7_MEMBER_5_FILL">
      <path
         d="m 2172.6,304.1 q -8.3,-6 -20.15,-6 -11.8,0 -20.2,6 -5.75,4.25 -7.5,9.65 -0.75,2.2 -0.8,4.5 v 0.1 q 0,0.35 0.15,0.7 0.95,2.3 8.15,3.9 5.05,1.15 11.25,1.6 v 108.4 h 17.85 v -108.4 q 6.3,-0.45 11.25,-1.6 7.25,-1.6 8.2,-3.9 0.15,-0.35 0.15,-0.7 v -0.1 q -0.1,-2.3 -0.75,-4.5 -1.8,-5.4 -7.6,-9.65 z"
         id="path143"
         inkscape:connector-curvature="0"
         style="fill:#c4edf0;stroke:none" />
    </g>
    <g
       id="Layer0_7_MEMBER_6_FILL">
      <path
         d="m 1877.2,263.75 q -1.8,-5.4 -7.6,-9.65 -8.3,-6 -20.15,-6 -11.8,0 -20.2,6 -5.75,4.25 -7.5,9.65 -0.75,2.2 -0.8,4.5 v 0.1 q 0,0.35 0.15,0.7 0.95,2.3 8.15,3.9 5.05,1.15 11.25,1.6 v 108.4 h 17.85 v -108.4 q 6.3,-0.45 11.25,-1.6 7.25,-1.6 8.2,-3.9 0.15,-0.35 0.15,-0.7 v -0.1 q -0.1,-2.3 -0.75,-4.5 z"
         id="path146"
         inkscape:connector-curvature="0"
         style="fill:#c4edf0;stroke:none" />
    </g>
    <g
       id="Layer0_7_MEMBER_7_FILL">
      <path
         d="m 1779.65,292.1 q -8.3,-6 -20.15,-6 -11.8,0 -20.2,6 -5.75,4.25 -7.5,9.65 -0.75,2.2 -0.8,4.5 v 0.1 q 0,0.35 0.15,0.7 0.95,2.3 8.15,3.9 5.05,1.15 11.25,1.6 v 108.4 h 17.85 v -108.4 q 6.3,-0.45 11.25,-1.6 7.25,-1.6 8.2,-3.9 0.15,-0.35 0.15,-0.7 v -0.1 q -0.1,-2.3 -0.75,-4.5 -1.8,-5.4 -7.6,-9.65 z"
         id="path149"
         inkscape:connector-curvature="0"
         style="fill:#c4edf0;stroke:none" />
    </g>
  </defs>
  <g
     id="g156"
     transform="translate(0.1)">
    <use
       xlink:href="#Layer0_0_MEMBER_0_FILL"
       id="use154"
       x="0"
       y="0"
       width="100%"
       height="100%" />
  </g>
  <g
     id="g160"
     transform="translate(0.1)">
    <use
       xlink:href="#Layer0_0_MEMBER_1_FILL"
       id="use158"
       x="0"
       y="0"
       width="100%"
       height="100%" />
  </g>
  <g
     id="g164"
     transform="translate(0.1)">
    <use
       xlink:href="#Layer0_0_MEMBER_2_FILL"
       id="use162"
       x="0"
       y="0"
       width="100%"
       height="100%" />
  </g>
  <g
     id="g168"
     transform="translate(0.1)">
    <use
       xlink:href="#Layer0_0_MEMBER_3_FILL"
       id="use166"
       x="0"
       y="0"
       width="100%"
       height="100%" />
  </g>
  <g
     id="g172"
     transform="translate(0.1)">
    <use
       xlink:href="#Layer0_0_MEMBER_4_FILL"
       id="use170"
       x="0"
       y="0"
       width="100%"
       height="100%" />
  </g>
  <g
     id="g176"
     transform="translate(0.1)">
    <use
       xlink:href="#Layer0_1_MEMBER_0_FILL"
       id="use174"
       x="0"
       y="0"
       width="100%"
       height="100%" />
  </g>
  <g
     id="g180"
     transform="translate(0.1)">
    <use
       xlink:href="#Layer0_1_MEMBER_1_FILL"
       id="use178"
       x="0"
       y="0"
       width="100%"
       height="100%" />
  </g>
  <g
     id="g184"
     transform="translate(0.1)">
    <use
       xlink:href="#Layer0_1_MEMBER_2_FILL"
       id="use182"
       x="0"
       y="0"
       width="100%"
       height="100%" />
  </g>
  <g
     id="g188"
     transform="translate(0.1)">
    <use
       xlink:href="#Layer0_1_MEMBER_3_FILL"
       id="use186"
       x="0"
       y="0"
       width="100%"
       height="100%" />
  </g>
  <g
     id="g192"
     transform="translate(0.1)">
    <use
       xlink:href="#Layer0_1_MEMBER_4_FILL"
       id="use190"
       x="0"
       y="0"
       width="100%"
       height="100%" />
  </g>
  <g
     id="g196"
     transform="translate(0.1)">
    <use
       xlink:href="#Layer0_2_MEMBER_0_FILL"
       id="use194"
       x="0"
       y="0"
       width="100%"
       height="100%" />
  </g>
  <g
     id="g200"
     transform="translate(0.1)">
    <use
       xlink:href="#Layer0_2_MEMBER_1_FILL"
       id="use198"
       x="0"
       y="0"
       width="100%"
       height="100%" />
  </g>
  <g
     id="g204"
     transform="translate(0.1)">
    <use
       xlink:href="#Layer0_2_MEMBER_2_FILL"
       id="use202"
       x="0"
       y="0"
       width="100%"
       height="100%" />
  </g>
  <g
     id="g208"
     transform="translate(0.1)">
    <use
       xlink:href="#Layer0_2_MEMBER_3_FILL"
       id="use206"
       x="0"
       y="0"
       width="100%"
       height="100%" />
  </g>
  <g
     id="g212"
     transform="translate(0.1)">
    <use
       xlink:href="#Layer0_2_MEMBER_4_FILL"
       id="use210"
       x="0"
       y="0"
       width="100%"
       height="100%" />
  </g>
  <g
     id="g216"
     transform="translate(0.1)">
    <use
       xlink:href="#Layer0_2_MEMBER_5_FILL"
       id="use214"
       x="0"
       y="0"
       width="100%"
       height="100%" />
  </g>
  <g
     id="g220"
     transform="translate(0.1)">
    <use
       xlink:href="#Layer0_3_MEMBER_0_FILL"
       id="use218"
       x="0"
       y="0"
       width="100%"
       height="100%" />
  </g>
  <g
     id="g224"
     transform="translate(0.1)">
    <use
       xlink:href="#Layer0_3_MEMBER_1_FILL"
       id="use222"
       x="0"
       y="0"
       width="100%"
       height="100%" />
  </g>
  <g
     id="g228"
     transform="translate(0.1)">
    <use
       xlink:href="#Layer0_3_MEMBER_2_FILL"
       id="use226"
       x="0"
       y="0"
       width="100%"
       height="100%" />
  </g>
  <g
     id="g232"
     transform="translate(0.1)">
    <use
       xlink:href="#Layer0_3_MEMBER_3_FILL"
       id="use230"
       x="0"
       y="0"
       width="100%"
       height="100%" />
  </g>
  <g
     id="g236"
     transform="translate(0.1)">
    <use
       xlink:href="#Layer0_3_MEMBER_4_FILL"
       id="use234"
       x="0"
       y="0"
       width="100%"
       height="100%" />
  </g>
  <g
     id="g240"
     transform="translate(0.1)">
    <use
       xlink:href="#Layer0_4_MEMBER_0_FILL"
       id="use238"
       x="0"
       y="0"
       width="100%"
       height="100%" />
  </g>
  <g
     id="g244"
     transform="translate(0.1)">
    <use
       xlink:href="#Layer0_4_MEMBER_1_FILL"
       id="use242"
       x="0"
       y="0"
       width="100%"
       height="100%" />
  </g>
  <g
     id="g248"
     transform="translate(0.1)">
    <use
       xlink:href="#Layer0_4_MEMBER_2_FILL"
       id="use246"
       x="0"
       y="0"
       width="100%"
       height="100%" />
  </g>
  <g
     id="g252"
     transform="translate(0.1)">
    <use
       xlink:href="#Layer0_4_MEMBER_3_FILL"
       id="use250"
       x="0"
       y="0"
       width="100%"
       height="100%" />
  </g>
  <g
     id="g256"
     transform="translate(0.1)">
    <use
       xlink:href="#Layer0_5_MEMBER_0_FILL"
       id="use254"
       x="0"
       y="0"
       width="100%"
       height="100%" />
  </g>
  <g
     id="g260"
     transform="translate(0.1)">
    <use
       xlink:href="#Layer0_5_MEMBER_1_FILL"
       id="use258"
       x="0"
       y="0"
       width="100%"
       height="100%" />
  </g>
  <g
     id="g264"
     transform="translate(0.1)">
    <use
       xlink:href="#Layer0_5_MEMBER_2_FILL"
       id="use262"
       x="0"
       y="0"
       width="100%"
       height="100%" />
  </g>
  <g
     id="g268"
     transform="translate(0.1)">
    <use
       xlink:href="#Layer0_5_MEMBER_3_FILL"
       id="use266"
       x="0"
       y="0"
       width="100%"
       height="100%" />
  </g>
  <g
     id="g272"
     transform="translate(0.1)">
    <use
       xlink:href="#Layer0_5_MEMBER_4_FILL"
       id="use270"
       x="0"
       y="0"
       width="100%"
       height="100%" />
  </g>
  <g
     id="g276"
     transform="translate(0.1)">
    <use
       xlink:href="#Layer0_6_MEMBER_0_FILL"
       id="use274"
       x="0"
       y="0"
       width="100%"
       height="100%" />
  </g>
  <g
     id="g280"
     transform="translate(0.1)">
    <use
       xlink:href="#Layer0_6_MEMBER_1_FILL"
       id="use278"
       x="0"
       y="0"
       width="100%"
       height="100%" />
  </g>
  <g
     id="g284"
     transform="translate(0.1)">
    <use
       xlink:href="#Layer0_6_MEMBER_2_FILL"
       id="use282"
       x="0"
       y="0"
       width="100%"
       height="100%" />
  </g>
  <g
     id="g288"
     transform="translate(0.1)">
    <use
       xlink:href="#Layer0_6_MEMBER_3_FILL"
       id="use286"
       x="0"
       y="0"
       width="100%"
       height="100%" />
  </g>
  <g
     id="g292"
     transform="translate(0.1)">
    <use
       xlink:href="#Layer0_6_MEMBER_4_FILL"
       id="use290"
       x="0"
       y="0"
       width="100%"
       height="100%" />
  </g>
  <g
     id="g296"
     transform="translate(0.1)">
    <use
       xlink:href="#Layer0_6_MEMBER_5_FILL"
       id="use294"
       x="0"
       y="0"
       width="100%"
       height="100%" />
  </g>
  <g
     id="g300"
     transform="translate(0.1)">
    <use
       xlink:href="#Layer0_7_MEMBER_0_FILL"
       id="use298"
       x="0"
       y="0"
       width="100%"
       height="100%" />
  </g>
  <g
     id="g304"
     transform="translate(0.1)">
    <use
       xlink:href="#Layer0_7_MEMBER_1_FILL"
       id="use302"
       x="0"
       y="0"
       width="100%"
       height="100%" />
  </g>
  <g
     id="g308"
     transform="translate(0.1)">
    <use
       xlink:href="#Layer0_7_MEMBER_2_FILL"
       id="use306"
       x="0"
       y="0"
       width="100%"
       height="100%" />
  </g>
  <g
     id="g312"
     transform="translate(0.1)">
    <use
       xlink:href="#Layer0_7_MEMBER_3_FILL"
       id="use310"
       x="0"
       y="0"
       width="100%"
       height="100%" />
  </g>
  <g
     id="g316"
     transform="translate(0.1)">
    <use
       xlink:href="#Layer0_7_MEMBER_4_FILL"
       id="use314"
       x="0"
       y="0"
       width="100%"
       height="100%" />
  </g>
  <g
     id="g320"
     transform="translate(0.1)">
    <use
       xlink:href="#Layer0_7_MEMBER_5_FILL"
       id="use318"
       x="0"
       y="0"
       width="100%"
       height="100%" />
  </g>
  <g
     id="g324"
     transform="translate(0.1)">
    <use
       xlink:href="#Layer0_7_MEMBER_6_FILL"
       id="use322"
       x="0"
       y="0"
       width="100%"
       height="100%" />
  </g>
  <g
     id="g328"
     transform="translate(0.1)">
    <use
       xlink:href="#Layer0_7_MEMBER_7_FILL"
       id="use326"
       x="0"
       y="0"
       width="100%"
       height="100%" />
  </g>
</svg>
